<svg width="302" height="139" viewBox="0 0 302 139" fill="none" xmlns="http://www.w3.org/2000/svg">
<path d="M30.66 19.01C40.18 19.01 45.71 25.87 47.25 39.59C47.25 50.93 44.59 58.07 39.27 61.01H38.01C33.95 60.73 31.92 59.26 31.92 56.6L32.76 40.85V33.08L31.5 31.61H29.4C24.92 31.61 19.67 44.07 13.65 68.99L12.39 84.74V89.36C12.39 103.92 18.9 112.46 31.92 114.98H40.74C55.3 114.98 72.94 105.6 93.66 86.84H94.5C98.28 86.84 100.45 89.22 101.01 93.98C97.79 102.38 94.01 106.58 89.67 106.58C69.65 120.86 51.66 128 35.7 128C19.74 128 8.47 119.25 1.89 101.75L0 86.84V84.11C0 62.41 6.09 42.46 18.27 24.26C22.19 20.76 26.32 19.01 30.66 19.01Z" fill="#FFB802"/>
<path d="M148.26 46.94C154.42 46.94 157.5 49.39 157.5 54.29L155.61 58.28L154.35 96.71C154.35 114.07 157.85 124.85 164.85 129.05L165.27 132.2C164.85 136.26 162.96 138.29 159.6 138.29H158.34C147.84 131.15 142.59 120.23 142.59 105.53H141.12C135.52 121.21 128.73 129.05 120.75 129.05C113.33 126.95 109.62 121.42 109.62 112.46C109.62 92.72 117.53 73.05 133.35 53.45C138.67 49.11 143.64 46.94 148.26 46.94ZM122.85 104.06L122.01 109.94V113.93H124.11C134.61 87.75 139.86 71.79 139.86 66.05H139.02C130.9 75.15 125.51 87.82 122.85 104.06Z" fill="#FFB802"/>
<path d="M195.088 0.530029C199.008 1.37004 200.968 3.33003 200.968 6.41003L199.708 15.65V18.38C199.708 24.54 200.408 31.05 201.808 37.91H202.228C218.468 33.01 228.548 30.56 232.468 30.56C236.528 31.68 238.558 33.71 238.558 36.65C238.558 41.41 233.728 43.79 224.068 43.79L202.228 51.56C202.228 70.46 204.258 96.15 208.318 128.63C207.478 132.41 205.448 134.3 202.228 134.3H201.808C196.908 134.3 194.458 128 194.458 115.4C192.638 106.02 191.098 85.65 189.838 54.29H186.058C172.898 53.45 166.318 50.37 166.318 45.05C166.318 43.51 167.788 41.62 170.728 39.38H172.828L182.488 41.9H189.208L187.318 15.65C187.318 5.57003 189.908 0.530029 195.088 0.530029Z" fill="#FFB802"/>
<path d="M287.167 42.95C290.947 42.95 293.537 49.32 294.937 62.06C293.537 65.56 291.227 67.31 288.007 67.31C285.767 66.89 283.527 64.3 281.287 59.54L277.507 58.28C270.927 58.28 264.977 62.62 259.657 71.3V73.19C259.657 75.29 269.527 78.79 289.267 83.69C297.527 88.59 301.657 94.54 301.657 101.54C301.657 113.02 292.417 122.82 273.937 130.94L266.167 132.2C254.407 130.94 248.527 125.06 248.527 114.56V113.93C248.527 110.57 250.697 108.61 255.037 108.05C258.397 108.05 260.637 111.55 261.757 118.55L263.437 119.81H267.007C274.987 119.81 282.407 114.35 289.267 103.43V100.7C289.267 96.5 280.097 92.58 261.757 88.94C252.097 85.02 247.267 79.56 247.267 72.56C247.267 63.46 254.897 54.92 270.157 46.94C276.877 46.1 282.547 44.77 287.167 42.95Z" fill="#FFB802"/>
</svg>
